<svg width="228" height="160" viewBox="0 0 228 160" fill="none" xmlns="http://www.w3.org/2000/svg">
<g clip-path="url(#clip0_330_11)">
<path d="M164.723 82.9315C164.723 78.0397 166.602 74.8818 171.27 74.8818C175.937 74.8818 177.817 77.7922 177.817 82.6222V84.3554H167.815C168.057 86.5225 168.906 88.2565 172.421 88.2565C175.937 88.2565 174.847 88.2565 176.787 87.6989V90.4228C174.422 91.0424 173.574 91.0424 172.421 91.0424C165.572 91.0424 164.723 86.0268 164.723 82.9934V82.9315ZM150.599 88.999V85.9038C153.388 87.637 154.783 88.2565 157.025 88.2565C159.268 88.2565 159.692 87.3895 159.692 86.3988C159.692 85.4072 158.904 84.7266 156.116 84.1079C151.751 83.1172 150.599 81.6933 150.599 79.2161C150.599 76.7396 152.782 74.8818 155.994 74.8818C159.207 74.8818 160.055 75.4395 161.511 76.4921V79.2779C159.268 78.1634 157.328 77.6684 155.692 77.6684C154.054 77.6684 153.63 78.3498 153.63 79.0923C153.63 79.8356 153.994 80.5788 156.601 81.2594C161.087 82.4977 162.723 83.4884 162.723 86.3361C162.723 89.1854 160.541 90.9805 157.025 90.9805C153.509 90.9805 152.781 90.4855 150.599 88.999ZM86.1603 82.9315C86.1603 78.0397 88.5239 74.8818 92.9495 74.8818C97.3751 74.8818 99.2545 77.421 99.2545 81.0738H96.2231C96.1016 79.155 95.4958 77.6684 93.0702 77.6684C90.6462 77.6684 89.1305 78.9067 89.1305 82.9315C89.1305 86.9556 90.2215 88.1939 93.0702 88.1939C95.9198 88.1939 96.1016 86.7081 96.2231 84.7893H99.2545C99.2545 88.504 96.89 90.9805 92.9495 90.9805C89.0091 90.9805 86.1603 87.7608 86.1603 82.9315ZM131.867 82.9315C131.867 87.5133 130.109 90.9805 125.198 90.9805C120.288 90.9805 121.561 90.1754 120.652 88.8134V90.6711H117.621V69H120.652V77.0489C121.561 75.6877 123.077 74.8818 125.198 74.8818C130.109 74.8818 131.867 78.4117 131.867 82.9315ZM70.2776 85.5008C70.2914 82.848 72.05 80.0831 75.7338 80.0831C79.4313 80.0831 79.0677 80.7018 79.9768 81.94V77.9159H72.0966V75.1301H83.0082V87.5133H84.8264V90.6085H79.9768V89.0616C79.0677 90.2991 77.8553 90.9178 75.7338 90.9178C72.05 90.9178 70.2914 88.2147 70.2776 85.5008ZM133.868 85.5008C133.881 82.848 135.639 80.0831 139.323 80.0831C143.021 80.0831 142.657 80.7018 143.566 81.94V77.9159H135.686V75.1301H146.598V87.5133H148.416V90.6085H143.566V89.0616C142.657 90.2991 141.445 90.9178 139.323 90.9178C135.639 90.9178 133.881 88.2147 133.868 85.5008ZM105.134 81.5688H107.498L111.741 75.1912H115.439L110.226 82.9934L115.439 90.7322H111.741L107.498 84.4173H105.134V90.6711H102.102V69H105.134V81.5688ZM63.6091 79.7118V79.155C66.6404 78.7211 67.4281 76.8633 67.4281 74.82C67.4281 72.7766 65.6702 69.5576 61.3661 69.5576H58.9413V72.3435H61.3661C63.6694 72.3435 64.3967 73.0867 64.3967 75.0682C64.3967 77.0489 63.6694 78.1016 61.3661 78.1016H53.7892V90.6711H61.3661C66.3364 90.6711 68.0339 87.7608 68.0339 84.7893C68.0339 81.8171 67.1256 80.1449 63.6091 79.7118ZM79.9157 85.5318C79.9157 83.9834 78.8248 82.9315 76.5818 82.9315C74.3388 82.9315 73.2487 84.046 73.2487 85.5318C73.2487 87.0183 74.3388 88.1939 76.5818 88.1939C78.8248 88.1939 79.9157 87.0794 79.9157 85.5318ZM143.506 85.5318C143.506 83.9834 142.415 82.9315 140.171 82.9315C137.929 82.9315 136.837 84.046 136.837 85.5318C136.837 87.0183 137.929 88.1939 140.171 88.1939C142.415 88.1939 143.506 87.0794 143.506 85.5318ZM128.836 82.9315C128.836 79.2161 127.745 77.6684 124.774 77.6684C121.804 77.6684 120.713 79.2161 120.713 82.9315C120.713 86.6463 121.804 88.1939 124.774 88.1939C127.745 88.1939 128.836 86.6463 128.836 82.9315ZM61.4272 87.8845H56.8802V80.8882H61.4272C64.1545 80.8882 65.0644 81.6307 65.0644 84.541C65.0644 87.4506 64.1545 87.8845 61.4272 87.8845ZM70.2776 85.5008V85.5318V85.4699V85.5008ZM133.868 85.5008L133.867 85.5318V85.4699L133.868 85.5008ZM174.786 81.5688C174.726 78.8448 173.695 77.7303 171.27 77.7303C168.845 77.7303 167.875 79.0923 167.754 81.5688H174.786ZM51 69.6195V72.5299H53.8488V75.6251H56.8198V69.6195H51Z" fill="#091C35"/>
</g>
<defs>
<clipPath id="clip0_330_11">
<rect width="126.817" height="22.4291" fill="white" transform="translate(51 69)"/>
</clipPath>
</defs>
</svg>
