<svg width="127" height="24" viewBox="0 0 127 24" fill="none" xmlns="http://www.w3.org/2000/svg">
<g clip-path="url(#clip0_222_568)">
<path d="M113.732 14.5336C113.732 9.64174 115.611 6.48388 120.279 6.48388C124.946 6.48388 126.825 9.39425 126.825 14.2242V15.9575H116.824C117.066 18.1246 117.915 19.8586 121.43 19.8586C124.946 19.8586 123.856 19.8586 125.796 19.3009V22.0249C123.43 22.6444 122.582 22.6444 121.43 22.6444C114.581 22.6444 113.732 17.6288 113.732 14.5955V14.5336ZM99.6079 20.601V17.5058C102.397 19.2391 103.791 19.8586 106.034 19.8586C108.276 19.8586 108.7 18.9916 108.7 18.0008C108.7 17.0093 107.913 16.3287 105.124 15.71C100.76 14.7192 99.6079 13.2954 99.6079 10.8181C99.6079 8.34162 101.791 6.48388 105.003 6.48388C108.216 6.48388 109.064 7.04151 110.519 8.09413V10.88C108.276 9.76548 106.337 9.2705 104.7 9.2705C103.063 9.2705 102.639 9.95188 102.639 10.6944C102.639 11.4376 103.003 12.1809 105.61 12.8615C110.095 14.0997 111.732 15.0905 111.732 17.9382C111.732 20.7874 109.55 22.5825 106.034 22.5825C102.518 22.5825 101.79 22.0875 99.6079 20.601ZM35.1691 14.5336C35.1691 9.64174 37.5327 6.48388 41.9583 6.48388C46.3839 6.48388 48.2632 9.023 48.2632 12.6758H45.2319C45.1104 10.757 44.5046 9.2705 42.079 9.2705C39.655 9.2705 38.1393 10.5087 38.1393 14.5336C38.1393 18.5577 39.2302 19.7959 42.079 19.7959C44.9286 19.7959 45.1104 18.3102 45.2319 16.3913H48.2632C48.2632 20.1061 45.8988 22.5825 41.9583 22.5825C38.0178 22.5825 35.1691 19.3628 35.1691 14.5336ZM80.8757 14.5336C80.8757 19.1153 79.1179 22.5825 74.2072 22.5825C69.2972 22.5825 70.57 21.7774 69.6609 20.4154V22.2732H66.6302V0.602051H69.6609V8.65099C70.57 7.28978 72.0857 6.48388 74.2072 6.48388C79.1179 6.48388 80.8757 10.0138 80.8757 14.5336ZM19.2864 17.1029C19.3002 14.4501 21.0588 11.6851 24.7426 11.6851C28.4401 11.6851 28.0765 12.3038 28.9856 13.5421V9.51799H21.1054V6.73215H32.017V19.1153H33.8352V22.2105H28.9856V20.6637C28.0765 21.9012 26.8641 22.5199 24.7426 22.5199C21.0588 22.5199 19.3002 19.8168 19.2864 17.1029ZM82.8765 17.1029C82.8895 14.4501 84.6481 11.6851 88.3319 11.6851C92.0295 11.6851 91.6658 12.3038 92.5749 13.5421V9.51799H84.6947V6.73215H95.6063V19.1153H97.4253V22.2105H92.5749V20.6637C91.6658 21.9012 90.4534 22.5199 88.3319 22.5199C84.6481 22.5199 82.8895 19.8168 82.8765 17.1029ZM54.1426 13.1708H56.5071L60.7501 6.79325H64.4476L59.2352 14.5955L64.4476 22.3343H60.7501L56.5071 16.0193H54.1426V22.2732H51.1113V0.602051H54.1426V13.1708ZM12.6179 11.3139V10.757C15.6492 10.3231 16.4369 8.46537 16.4369 6.42201C16.4369 4.37864 14.679 1.15968 10.3749 1.15968H7.9501V3.94553H10.3749C12.6782 3.94553 13.4055 4.68878 13.4055 6.67027C13.4055 8.65099 12.6782 9.70361 10.3749 9.70361H2.79799V22.2732H10.3749C15.3452 22.2732 17.0427 19.3628 17.0427 16.3913C17.0427 13.4191 16.1343 11.747 12.6179 11.3139ZM28.9245 17.1338C28.9245 15.5854 27.8336 14.5336 25.5906 14.5336C23.3476 14.5336 22.2575 15.6481 22.2575 17.1338C22.2575 18.6203 23.3476 19.7959 25.5906 19.7959C27.8336 19.7959 28.9245 18.6814 28.9245 17.1338ZM92.5146 17.1338C92.5146 15.5854 91.4236 14.5336 89.1799 14.5336C86.9377 14.5336 85.846 15.6481 85.846 17.1338C85.846 18.6203 86.9377 19.7959 89.1799 19.7959C91.4236 19.7959 92.5146 18.6814 92.5146 17.1338ZM77.8443 14.5336C77.8443 10.8181 76.7534 9.2705 73.7832 9.2705C70.8129 9.2705 69.722 10.8181 69.722 14.5336C69.722 18.2483 70.8129 19.7959 73.7832 19.7959C76.7534 19.7959 77.8443 18.2483 77.8443 14.5336ZM10.436 19.4865H5.88895V12.4902H10.436C13.1633 12.4902 14.0732 13.2327 14.0732 16.1431C14.0732 19.0527 13.1633 19.4865 10.436 19.4865ZM19.2864 17.1029V17.1338V17.0719V17.1029ZM82.8765 17.1029L82.8758 17.1338V17.0719L82.8765 17.1029ZM123.795 13.1708C123.734 10.4469 122.704 9.33237 120.279 9.33237C117.853 9.33237 116.884 10.6944 116.763 13.1708H123.795ZM0.00878906 1.22156V4.13192H2.85758V7.22713H5.8286V1.22156H0.00878906Z" fill="#091C35"/>
</g>
<defs>
<clipPath id="clip0_222_568">
<rect width="126.817" height="22.4291" fill="white" transform="translate(0.00878906 0.602051)"/>
</clipPath>
</defs>
</svg>
