<svg width="150" height="80" viewBox="0 0 150 80" fill="none" xmlns="http://www.w3.org/2000/svg">
<g clip-path="url(#clip0_330_11)">
<path d="M125.723 42.9315C125.723 38.0397 127.602 34.8818 132.27 34.8818C136.937 34.8818 138.817 37.7922 138.817 42.6222V44.3554H128.815C129.057 46.5225 129.906 48.2565 133.421 48.2565C136.937 48.2565 135.847 48.2565 137.787 47.6989V50.4228C135.422 51.0424 134.574 51.0424 133.421 51.0424C126.572 51.0424 125.723 46.0268 125.723 42.9934V42.9315ZM111.599 48.999V45.9038C114.388 47.637 115.783 48.2565 118.025 48.2565C120.268 48.2565 120.692 47.3895 120.692 46.3988C120.692 45.4072 119.904 44.7266 117.116 44.1079C112.751 43.1172 111.599 41.6933 111.599 39.2161C111.599 36.7396 113.782 34.8818 116.994 34.8818C120.207 34.8818 121.055 35.4395 122.511 36.4921V39.2779C120.268 38.1634 118.328 37.6684 116.692 37.6684C115.054 37.6684 114.63 38.3498 114.63 39.0923C114.63 39.8356 114.994 40.5788 117.601 41.2594C122.087 42.4977 123.723 43.4884 123.723 46.3361C123.723 49.1854 121.541 50.9805 118.025 50.9805C114.509 50.9805 113.781 50.4855 111.599 48.999ZM47.1603 42.9315C47.1603 38.0397 49.5239 34.8818 53.9495 34.8818C58.3751 34.8818 60.2545 37.421 60.2545 41.0738H57.2231C57.1016 39.155 56.4958 37.6684 54.0702 37.6684C51.6462 37.6684 50.1305 38.9067 50.1305 42.9315C50.1305 46.9556 51.2215 48.1939 54.0702 48.1939C56.9198 48.1939 57.1016 46.7081 57.2231 44.7893H60.2545C60.2545 48.504 57.89 50.9805 53.9495 50.9805C50.0091 50.9805 47.1603 47.7608 47.1603 42.9315ZM92.8669 42.9315C92.8669 47.5133 91.1091 50.9805 86.1984 50.9805C81.2884 50.9805 82.5612 50.1754 81.6521 48.8134V50.6711H78.6215V29H81.6521V37.0489C82.5612 35.6877 84.0769 34.8818 86.1984 34.8818C91.1091 34.8818 92.8669 38.4117 92.8669 42.9315ZM31.2776 45.5008C31.2914 42.848 33.05 40.0831 36.7338 40.0831C40.4313 40.0831 40.0677 40.7018 40.9768 41.94V37.9159H33.0966V35.1301H44.0082V47.5133H45.8264V50.6085H40.9768V49.0616C40.0677 50.2991 38.8553 50.9178 36.7338 50.9178C33.05 50.9178 31.2914 48.2147 31.2776 45.5008ZM94.8677 45.5008C94.8807 42.848 96.6393 40.0831 100.323 40.0831C104.021 40.0831 103.657 40.7018 104.566 41.94V37.9159H96.6859V35.1301H107.598V47.5133H109.416V50.6085H104.566V49.0616C103.657 50.2991 102.445 50.9178 100.323 50.9178C96.6393 50.9178 94.8807 48.2147 94.8677 45.5008ZM66.1339 41.5688H68.4983L72.7413 35.1912H76.4388L71.2264 42.9934L76.4388 50.7322H72.7413L68.4983 44.4173H66.1339V50.6711H63.1025V29H66.1339V41.5688ZM24.6091 39.7118V39.155C27.6404 38.7211 28.4281 36.8633 28.4281 34.82C28.4281 32.7766 26.6702 29.5576 22.3661 29.5576H19.9413V32.3435H22.3661C24.6694 32.3435 25.3967 33.0867 25.3967 35.0682C25.3967 37.0489 24.6694 38.1016 22.3661 38.1016H14.7892V50.6711H22.3661C27.3364 50.6711 29.0339 47.7608 29.0339 44.7893C29.0339 41.8171 28.1256 40.1449 24.6091 39.7118ZM40.9157 45.5318C40.9157 43.9834 39.8248 42.9315 37.5818 42.9315C35.3388 42.9315 34.2487 44.046 34.2487 45.5318C34.2487 47.0183 35.3388 48.1939 37.5818 48.1939C39.8248 48.1939 40.9157 47.0794 40.9157 45.5318ZM104.506 45.5318C104.506 43.9834 103.415 42.9315 101.171 42.9315C98.9289 42.9315 97.8372 44.046 97.8372 45.5318C97.8372 47.0183 98.9289 48.1939 101.171 48.1939C103.415 48.1939 104.506 47.0794 104.506 45.5318ZM89.8356 42.9315C89.8356 39.2161 88.7446 37.6684 85.7744 37.6684C82.8041 37.6684 81.7132 39.2161 81.7132 42.9315C81.7132 46.6463 82.8041 48.1939 85.7744 48.1939C88.7446 48.1939 89.8356 46.6463 89.8356 42.9315ZM22.4272 47.8845H17.8802V40.8882H22.4272C25.1545 40.8882 26.0644 41.6307 26.0644 44.541C26.0644 47.4506 25.1545 47.8845 22.4272 47.8845ZM31.2776 45.5008V45.5318V45.4699V45.5008ZM94.8677 45.5008L94.867 45.5318V45.4699L94.8677 45.5008ZM135.786 41.5688C135.726 38.8448 134.695 37.7303 132.27 37.7303C129.845 37.7303 128.875 39.0923 128.754 41.5688H135.786ZM12 29.6195V32.5299H14.8488V35.6251H17.8198V29.6195H12Z" fill="#091C35"/>
</g>
<defs>
<clipPath id="clip0_330_11">
<rect width="126.817" height="22.4291" fill="white" transform="translate(12 29)"/>
</clipPath>
</defs>
</svg>
