<svg width="200" height="80" viewBox="0 0 200 80" fill="none" xmlns="http://www.w3.org/2000/svg">
<g clip-path="url(#clip0_330_11)">
<path d="M150.723 42.9315C150.723 38.0397 152.602 34.8818 157.27 34.8818C161.937 34.8818 163.817 37.7922 163.817 42.6222V44.3554H153.815C154.057 46.5225 154.906 48.2565 158.421 48.2565C161.937 48.2565 160.847 48.2565 162.787 47.6989V50.4228C160.422 51.0424 159.574 51.0424 158.421 51.0424C151.572 51.0424 150.723 46.0268 150.723 42.9934V42.9315ZM136.599 48.999V45.9038C139.388 47.637 140.783 48.2565 143.025 48.2565C145.268 48.2565 145.692 47.3895 145.692 46.3988C145.692 45.4072 144.904 44.7266 142.116 44.1079C137.751 43.1172 136.599 41.6933 136.599 39.2161C136.599 36.7396 138.782 34.8818 141.994 34.8818C145.207 34.8818 146.055 35.4395 147.511 36.4921V39.2779C145.268 38.1634 143.328 37.6684 141.692 37.6684C140.054 37.6684 139.63 38.3498 139.63 39.0923C139.63 39.8356 139.994 40.5788 142.601 41.2594C147.087 42.4977 148.723 43.4884 148.723 46.3361C148.723 49.1854 146.541 50.9805 143.025 50.9805C139.509 50.9805 138.781 50.4855 136.599 48.999ZM72.1603 42.9315C72.1603 38.0397 74.5239 34.8818 78.9495 34.8818C83.3751 34.8818 85.2545 37.421 85.2545 41.0738H82.2231C82.1016 39.155 81.4958 37.6684 79.0702 37.6684C76.6462 37.6684 75.1305 38.9067 75.1305 42.9315C75.1305 46.9556 76.2215 48.1939 79.0702 48.1939C81.9198 48.1939 82.1016 46.7081 82.2231 44.7893H85.2545C85.2545 48.504 82.89 50.9805 78.9495 50.9805C75.0091 50.9805 72.1603 47.7608 72.1603 42.9315ZM117.867 42.9315C117.867 47.5133 116.109 50.9805 111.198 50.9805C106.288 50.9805 107.561 50.1754 106.652 48.8134V50.6711H103.621V29H106.652V37.0489C107.561 35.6877 109.077 34.8818 111.198 34.8818C116.109 34.8818 117.867 38.4117 117.867 42.9315ZM56.2776 45.5008C56.2914 42.848 58.05 40.0831 61.7338 40.0831C65.4313 40.0831 65.0677 40.7018 65.9768 41.94V37.9159H58.0966V35.1301H69.0082V47.5133H70.8264V50.6085H65.9768V49.0616C65.0677 50.2991 63.8553 50.9178 61.7338 50.9178C58.05 50.9178 56.2914 48.2147 56.2776 45.5008ZM119.868 45.5008C119.881 42.848 121.639 40.0831 125.323 40.0831C129.021 40.0831 128.657 40.7018 129.566 41.94V37.9159H121.686V35.1301H132.598V47.5133H134.416V50.6085H129.566V49.0616C128.657 50.2991 127.445 50.9178 125.323 50.9178C121.639 50.9178 119.881 48.2147 119.868 45.5008ZM91.1339 41.5688H93.4983L97.7413 35.1912H101.439L96.2264 42.9934L101.439 50.7322H97.7413L93.4983 44.4173H91.1339V50.6711H88.1025V29H91.1339V41.5688ZM49.6091 39.7118V39.155C52.6404 38.7211 53.4281 36.8633 53.4281 34.82C53.4281 32.7766 51.6702 29.5576 47.3661 29.5576H44.9413V32.3435H47.3661C49.6694 32.3435 50.3967 33.0867 50.3967 35.0682C50.3967 37.0489 49.6694 38.1016 47.3661 38.1016H39.7892V50.6711H47.3661C52.3364 50.6711 54.0339 47.7608 54.0339 44.7893C54.0339 41.8171 53.1256 40.1449 49.6091 39.7118ZM65.9157 45.5318C65.9157 43.9834 64.8248 42.9315 62.5818 42.9315C60.3388 42.9315 59.2487 44.046 59.2487 45.5318C59.2487 47.0183 60.3388 48.1939 62.5818 48.1939C64.8248 48.1939 65.9157 47.0794 65.9157 45.5318ZM129.506 45.5318C129.506 43.9834 128.415 42.9315 126.171 42.9315C123.929 42.9315 122.837 44.046 122.837 45.5318C122.837 47.0183 123.929 48.1939 126.171 48.1939C128.415 48.1939 129.506 47.0794 129.506 45.5318ZM114.836 42.9315C114.836 39.2161 113.745 37.6684 110.774 37.6684C107.804 37.6684 106.713 39.2161 106.713 42.9315C106.713 46.6463 107.804 48.1939 110.774 48.1939C113.745 48.1939 114.836 46.6463 114.836 42.9315ZM47.4272 47.8845H42.8802V40.8882H47.4272C50.1545 40.8882 51.0644 41.6307 51.0644 44.541C51.0644 47.4506 50.1545 47.8845 47.4272 47.8845ZM56.2776 45.5008V45.5318V45.4699V45.5008ZM119.868 45.5008L119.867 45.5318V45.4699L119.868 45.5008ZM160.786 41.5688C160.726 38.8448 159.695 37.7303 157.27 37.7303C154.845 37.7303 153.875 39.0923 153.754 41.5688H160.786ZM37 29.6195V32.5299H39.8488V35.6251H42.8198V29.6195H37Z" fill="#091C35"/>
</g>
<defs>
<clipPath id="clip0_330_11">
<rect width="126.817" height="22.4291" fill="white" transform="translate(37 29)"/>
</clipPath>
</defs>
</svg>
