<svg width="228" height="80" viewBox="0 0 228 80" fill="none" xmlns="http://www.w3.org/2000/svg">
<g clip-path="url(#clip0_330_11)">
<path d="M164.723 42.9315C164.723 38.0397 166.602 34.8818 171.27 34.8818C175.937 34.8818 177.817 37.7922 177.817 42.6222V44.3554H167.815C168.057 46.5225 168.906 48.2565 172.421 48.2565C175.937 48.2565 174.847 48.2565 176.787 47.6989V50.4228C174.422 51.0424 173.574 51.0424 172.421 51.0424C165.572 51.0424 164.723 46.0268 164.723 42.9934V42.9315ZM150.599 48.999V45.9038C153.388 47.637 154.783 48.2565 157.025 48.2565C159.268 48.2565 159.692 47.3895 159.692 46.3988C159.692 45.4072 158.904 44.7266 156.116 44.1079C151.751 43.1172 150.599 41.6933 150.599 39.2161C150.599 36.7396 152.782 34.8818 155.994 34.8818C159.207 34.8818 160.055 35.4395 161.511 36.4921V39.2779C159.268 38.1634 157.328 37.6684 155.692 37.6684C154.054 37.6684 153.63 38.3498 153.63 39.0923C153.63 39.8356 153.994 40.5788 156.601 41.2594C161.087 42.4977 162.723 43.4884 162.723 46.3361C162.723 49.1854 160.541 50.9805 157.025 50.9805C153.509 50.9805 152.781 50.4855 150.599 48.999ZM86.1603 42.9315C86.1603 38.0397 88.5239 34.8818 92.9495 34.8818C97.3751 34.8818 99.2545 37.421 99.2545 41.0738H96.2231C96.1016 39.155 95.4958 37.6684 93.0702 37.6684C90.6462 37.6684 89.1305 38.9067 89.1305 42.9315C89.1305 46.9556 90.2215 48.1939 93.0702 48.1939C95.9198 48.1939 96.1016 46.7081 96.2231 44.7893H99.2545C99.2545 48.504 96.89 50.9805 92.9495 50.9805C89.0091 50.9805 86.1603 47.7608 86.1603 42.9315ZM131.867 42.9315C131.867 47.5133 130.109 50.9805 125.198 50.9805C120.288 50.9805 121.561 50.1754 120.652 48.8134V50.6711H117.621V29H120.652V37.0489C121.561 35.6877 123.077 34.8818 125.198 34.8818C130.109 34.8818 131.867 38.4117 131.867 42.9315ZM70.2776 45.5008C70.2914 42.848 72.05 40.0831 75.7338 40.0831C79.4313 40.0831 79.0677 40.7018 79.9768 41.94V37.9159H72.0966V35.1301H83.0082V47.5133H84.8264V50.6085H79.9768V49.0616C79.0677 50.2991 77.8553 50.9178 75.7338 50.9178C72.05 50.9178 70.2914 48.2147 70.2776 45.5008ZM133.868 45.5008C133.881 42.848 135.639 40.0831 139.323 40.0831C143.021 40.0831 142.657 40.7018 143.566 41.94V37.9159H135.686V35.1301H146.598V47.5133H148.416V50.6085H143.566V49.0616C142.657 50.2991 141.445 50.9178 139.323 50.9178C135.639 50.9178 133.881 48.2147 133.868 45.5008ZM105.134 41.5688H107.498L111.741 35.1912H115.439L110.226 42.9934L115.439 50.7322H111.741L107.498 44.4173H105.134V50.6711H102.102V29H105.134V41.5688ZM63.6091 39.7118V39.155C66.6404 38.7211 67.4281 36.8633 67.4281 34.82C67.4281 32.7766 65.6702 29.5576 61.3661 29.5576H58.9413V32.3435H61.3661C63.6694 32.3435 64.3967 33.0867 64.3967 35.0682C64.3967 37.0489 63.6694 38.1016 61.3661 38.1016H53.7892V50.6711H61.3661C66.3364 50.6711 68.0339 47.7608 68.0339 44.7893C68.0339 41.8171 67.1256 40.1449 63.6091 39.7118ZM79.9157 45.5318C79.9157 43.9834 78.8248 42.9315 76.5818 42.9315C74.3388 42.9315 73.2487 44.046 73.2487 45.5318C73.2487 47.0183 74.3388 48.1939 76.5818 48.1939C78.8248 48.1939 79.9157 47.0794 79.9157 45.5318ZM143.506 45.5318C143.506 43.9834 142.415 42.9315 140.171 42.9315C137.929 42.9315 136.837 44.046 136.837 45.5318C136.837 47.0183 137.929 48.1939 140.171 48.1939C142.415 48.1939 143.506 47.0794 143.506 45.5318ZM128.836 42.9315C128.836 39.2161 127.745 37.6684 124.774 37.6684C121.804 37.6684 120.713 39.2161 120.713 42.9315C120.713 46.6463 121.804 48.1939 124.774 48.1939C127.745 48.1939 128.836 46.6463 128.836 42.9315ZM61.4272 47.8845H56.8802V40.8882H61.4272C64.1545 40.8882 65.0644 41.6307 65.0644 44.541C65.0644 47.4506 64.1545 47.8845 61.4272 47.8845ZM70.2776 45.5008V45.5318V45.4699V45.5008ZM133.868 45.5008L133.867 45.5318V45.4699L133.868 45.5008ZM174.786 41.5688C174.726 38.8448 173.695 37.7303 171.27 37.7303C168.845 37.7303 167.875 39.0923 167.754 41.5688H174.786ZM51 29.6195V32.5299H53.8488V35.6251H56.8198V29.6195H51Z" fill="#091C35"/>
</g>
<defs>
<clipPath id="clip0_330_11">
<rect width="126.817" height="22.4291" fill="white" transform="translate(51 29)"/>
</clipPath>
</defs>
</svg>
