<svg width="162" height="31" viewBox="0 0 162 31" fill="none" xmlns="http://www.w3.org/2000/svg">
<path d="M53.1411 28.5009V0.804443" stroke="#2C3B45" stroke-width="2.4545"/>
<path d="M6.41846 0.804443L24.1409 11.1872L41.8901 0.804443H6.41846Z" fill="#2C3B45"/>
<path d="M6.41846 28.5007L24.1409 18.1179L41.8901 28.5007H6.41846Z" fill="#2C3B45"/>
<path d="M0.887207 3.93286V25.3726L18.5559 14.6393L0.887207 3.93286Z" fill="#2C3B45"/>
<path d="M47.6101 3.93286V25.3726L29.9683 14.6393L47.6101 3.93286Z" fill="#2C3B45"/>
<path d="M60.8478 30.7393C62.1636 30.7393 63.6136 30.2 63.6136 28.2852V23.1612H62.4321V23.9433C62.0293 23.4039 61.3849 23.0803 60.7136 23.0803C59.3173 23.0803 58.3237 24.0782 58.3237 25.8581C58.3237 27.638 59.3173 28.6358 60.7136 28.6358C61.3849 28.6358 62.0293 28.2852 62.4321 27.7189V28.3122C62.4321 29.4448 61.6265 29.7954 60.8478 29.7954C60.2034 29.8494 59.5321 29.5797 59.1293 29.1212L58.5923 29.9842C59.2367 30.4966 60.0423 30.7663 60.8478 30.7393ZM61.0626 27.5031C60.1228 27.5031 59.5321 26.8289 59.5321 25.7772C59.5321 24.7254 60.1228 24.0512 61.0626 24.0512C61.5997 24.0512 62.1099 24.3209 62.459 24.7793V26.8289C62.1099 27.2334 61.6265 27.5031 61.0626 27.5031ZM67.5877 28.6897C69.0646 28.7437 70.3535 27.5571 70.3535 26.0199C70.3535 25.9659 70.3535 25.885 70.3535 25.8311C70.3535 24.2939 69.0914 23.0534 67.5877 23.0534C66.0571 23.0534 64.8219 24.3209 64.8219 25.8311C64.7682 27.3143 65.896 28.6088 67.3998 28.6358C67.4535 28.6897 67.4803 28.6897 67.5877 28.6897ZM67.5877 27.638C66.5942 27.638 66.0571 26.8289 66.0571 25.8311C66.0571 24.8333 66.5942 24.0512 67.5877 24.0512C68.5812 24.0512 69.1183 24.8602 69.1183 25.8311C69.1183 26.8019 68.5812 27.638 67.5877 27.638ZM74.0322 28.5549L76.2341 23.1612H74.972L73.3878 27.2065L71.8035 23.1612H70.5414L72.7433 28.5549H74.0322ZM77.0128 28.6897C77.4693 28.6897 77.7915 28.3391 77.7915 27.8807C77.7915 27.4222 77.4424 27.0986 77.0128 27.0986C76.61 27.0986 76.2341 27.4492 76.2341 27.8807C76.2341 28.3391 76.5563 28.6358 77.0128 28.6897ZM81.0675 28.6897C82.5175 28.6897 83.3231 27.9616 83.3231 27.0177C83.3231 24.8872 80.074 25.5614 80.074 24.6715C80.074 24.3209 80.423 23.9973 81.0675 23.9973C81.6582 23.9973 82.249 24.213 82.6518 24.6445L83.1351 23.8354C82.5444 23.35 81.8193 23.0534 81.0675 23.1073C79.7249 23.1073 78.9462 23.8894 78.9462 24.7524C78.9462 26.8289 82.1953 26.0738 82.1953 27.0986C82.1953 27.5031 81.8462 27.8267 81.1212 27.8267C80.4499 27.8267 79.8054 27.5571 79.3221 27.0447L78.7851 27.8537C79.4564 28.42 80.2619 28.6897 81.0675 28.6897ZM86.8944 28.6897C87.7 28.7437 88.4787 28.3661 88.962 27.7458L88.1833 27.0177C87.9148 27.4222 87.4583 27.6919 86.9212 27.6649C85.9277 27.6649 85.2833 26.8829 85.2833 25.8581C85.2027 24.9411 85.874 24.186 86.7601 24.0782C86.8138 24.0782 86.8407 24.0782 86.9481 24.0782C87.4314 24.0782 87.8879 24.2939 88.2102 24.7254L88.9889 24.0512C88.5055 23.404 87.7268 23.0534 86.9212 23.1073C85.3907 23.1073 84.1286 24.3748 84.1286 25.912C84.1018 27.4222 85.3638 28.6897 86.8944 28.6897ZM92.2648 28.6897C93.7417 28.7437 95.0306 27.5571 95.0306 26.0199C95.0306 25.9659 95.0306 25.885 95.0306 25.8311C95.0306 24.2939 93.7685 23.0534 92.2648 23.0534C90.7343 23.0534 89.4991 24.3209 89.4991 25.8311C89.4453 27.3143 90.5731 28.6088 92.0769 28.6358C92.1306 28.6897 92.1843 28.6897 92.2648 28.6897ZM92.2648 27.638C91.2713 27.638 90.7343 26.8289 90.7343 25.8311C90.7343 24.8333 91.2713 24.0512 92.2648 24.0512C93.2584 24.0512 93.7954 24.8602 93.7954 25.8311C93.7954 26.8019 93.2584 27.638 92.2648 27.638ZM97.7695 28.6897C98.1723 28.7437 98.5482 28.6088 98.8436 28.3391L98.5751 27.4222C98.4408 27.5571 98.2528 27.611 98.0917 27.611C97.7695 27.611 97.5547 27.3413 97.5547 27.0177C97.5547 26.9638 97.5547 26.9638 97.5547 26.9368V24.1321H98.6288V23.1343H97.5547V21.678H96.3732V23.1343H95.4602V24.1321H96.3732V27.2604C96.2926 27.9346 96.776 28.5819 97.4473 28.6628C97.6084 28.6897 97.689 28.6897 97.7695 28.6897Z" fill="#2C3B45"/>
<path d="M64.4729 18.4416L62.6201 15.5021C63.6942 15.3133 64.4729 14.4234 64.3924 13.3177C64.3924 11.9692 63.4525 10.9984 61.9488 10.9984H58.6997V18.4416H60.0155V15.6639H61.3312L62.9692 18.4416H64.4729ZM61.7877 14.5582H59.9886V12.158H61.7877C62.4322 12.1041 62.996 12.5625 63.0498 13.2368C63.1035 13.884 62.647 14.4503 61.9757 14.5043C61.922 14.5043 61.8951 14.5043 61.7877 14.5582ZM66.1646 12.4277C66.5674 12.4277 66.8896 12.1041 66.8896 11.6996C66.8896 11.295 66.5674 10.9714 66.1646 10.9714C65.7618 10.9714 65.4396 11.295 65.4396 11.6996C65.4127 12.1041 65.7618 12.4277 66.1646 12.4277C66.1377 12.4277 66.1377 12.4277 66.1646 12.4277ZM66.7285 18.4416V13.048H65.547V18.4416H66.7285ZM73.1193 18.4416V13.048H71.9378V13.7761C71.535 13.2368 70.8906 12.9131 70.2193 12.9131C68.823 12.9131 67.8294 13.9919 67.8294 15.7178C67.8294 17.4438 68.823 18.5225 70.2193 18.5225C70.8906 18.5225 71.535 18.1989 71.9378 17.6595V18.3877L73.1193 18.4416ZM70.5683 17.5517C69.6285 17.5517 69.0378 16.7696 69.0378 15.7448C69.0378 14.693 69.6285 13.9649 70.5683 13.9649C71.1054 13.9649 71.6424 14.2346 71.9647 14.693V16.8235C71.5887 17.255 71.1054 17.5517 70.5683 17.5517ZM76.7443 20.68C78.0601 20.68 79.5101 20.1406 79.5101 18.2259V13.048H78.3286V13.7761C77.9258 13.2368 77.2814 12.9131 76.6101 12.9131C75.2138 12.9131 74.2202 13.911 74.2202 15.6909C74.2202 17.4708 75.2138 18.4686 76.6101 18.4686C77.2814 18.4686 77.9258 18.118 78.3286 17.5517V18.145C78.3286 19.2776 77.523 19.6282 76.7443 19.6282C76.0999 19.6822 75.4823 19.4125 75.0258 18.954L74.4888 19.8709C75.1064 20.3833 75.9388 20.707 76.7443 20.68ZM76.9592 17.4168C76.0193 17.4168 75.4286 16.7426 75.4286 15.6909C75.4286 14.6391 76.0193 13.911 76.9592 13.911C77.4962 13.911 78.0064 14.1806 78.3555 14.6391V16.6887C78.0064 17.1202 77.4962 17.4168 76.9592 17.4168ZM85.7666 18.4416V14.6391C85.7666 13.5604 85.1759 12.9131 83.9944 12.9131C83.2694 12.9131 82.5981 13.2368 82.0879 13.7761V10.9984H80.9064V18.4416H82.0879V14.6661C82.4101 14.2076 82.9472 13.9379 83.4842 13.9379C84.1555 13.9379 84.5583 14.1537 84.5583 15.0167V18.4147H85.7666V18.4416ZM92.1843 18.4416V13.048H91.0028V13.7761C90.6 13.2368 89.9556 12.9131 89.2843 12.9131C87.888 12.9131 86.8944 13.9919 86.8944 15.7178C86.8944 17.4438 87.888 18.5225 89.2843 18.5225C89.9556 18.5225 90.6 18.1989 91.0028 17.6595V18.3877L92.1843 18.4416ZM89.6065 17.5517C88.6667 17.5517 88.0759 16.7696 88.0759 15.7448C88.0759 14.693 88.6667 13.9649 89.5528 13.9649C90.0898 13.9649 90.6269 14.2346 90.9491 14.693V16.8235C90.6806 17.255 90.1435 17.5517 89.6065 17.5517ZM94.9769 18.5765C95.3797 18.6304 95.7825 18.4956 96.051 18.2259L95.7825 17.309C95.6482 17.4438 95.4603 17.4977 95.2454 17.4977C94.9232 17.4977 94.7084 17.2281 94.7084 16.9044C94.7084 16.8505 94.7084 16.8505 94.7084 16.8235V10.9175H93.5269V17.1202C93.4464 17.7944 93.9297 18.4416 94.601 18.5225C94.7621 18.6304 94.8964 18.6304 94.9769 18.5765ZM98.1723 18.5765C98.5751 18.6304 98.951 18.4956 99.2464 18.2259L98.9779 17.309C98.8436 17.4438 98.6557 17.4977 98.4946 17.4977C98.1723 17.4977 97.9575 17.2281 97.9575 16.9584C97.9575 16.9044 97.9575 16.9044 97.9575 16.8775V14.0728H99.0316V13.0749H97.9575V11.6187H96.776V13.0749H95.8631V14.0728H96.776V17.2011C96.6955 17.8753 97.1788 18.5225 97.8501 18.6034C97.9575 18.5765 98.0381 18.5765 98.1723 18.5765ZM104.912 18.4416V13.048H103.731V13.7761C103.328 13.2368 102.683 12.9131 102.012 12.9131C100.616 12.9131 99.6223 13.9919 99.6223 15.7178C99.6223 17.4438 100.616 18.5225 102.012 18.5225C102.683 18.5225 103.328 18.1989 103.731 17.6595V18.3877L104.912 18.4416ZM102.388 17.5517C101.448 17.5517 100.858 16.7696 100.858 15.7448C100.858 14.693 101.448 13.9649 102.334 13.9649C102.871 13.9649 103.408 14.2346 103.731 14.693V16.8235C103.408 17.255 102.871 17.5517 102.388 17.5517ZM108.242 18.5765C109.692 18.5765 110.497 17.8483 110.497 16.9044C110.497 14.7739 107.248 15.4481 107.248 14.5582C107.248 14.2076 107.597 13.884 108.242 13.884C108.833 13.884 109.423 14.0997 109.826 14.5312L110.309 13.7222C109.719 13.2368 108.994 12.9401 108.242 12.994C106.899 12.994 106.121 13.7222 106.121 14.6391C106.121 16.7157 109.37 15.9605 109.37 16.9853C109.37 17.3899 109.021 17.7135 108.296 17.7135C107.624 17.7135 106.98 17.4438 106.496 16.9314L105.959 17.7404C106.577 18.3068 107.383 18.6304 108.242 18.5765ZM119.251 18.4416V14.6391C119.251 13.5604 118.661 12.9131 117.479 12.9131C116.754 12.9131 116.029 13.2368 115.573 13.7761V13.048H114.391V18.4416H115.519V14.6661C115.841 14.2076 116.378 13.9379 116.915 13.9379C117.586 13.9379 117.989 14.2076 117.989 15.0706V18.4147H119.251V18.4416ZM125.669 18.4416V13.048H124.487V13.7761C124.085 13.2368 123.44 12.9131 122.769 12.9131C121.373 12.9131 120.379 13.9919 120.379 15.7178C120.379 17.4438 121.373 18.5225 122.769 18.5225C123.44 18.5225 124.085 18.1989 124.487 17.6595V18.3877L125.669 18.4416ZM123.091 17.5517C122.151 17.5517 121.561 16.7696 121.561 15.7448C121.561 14.693 122.151 13.9649 123.037 13.9649C123.574 13.9649 124.111 14.2346 124.434 14.693V16.8235C124.138 17.255 123.601 17.5517 123.091 17.5517ZM134.799 18.4416V14.6391C134.799 13.5604 134.208 12.9131 133.026 12.9131C132.301 12.9131 131.63 13.2368 131.12 13.7761V10.9984H129.938V18.4416H131.12V14.6661C131.442 14.2076 131.925 13.9379 132.462 13.9379C133.134 13.9379 133.537 14.1537 133.537 15.0167V18.4147H134.799V18.4416ZM138.638 16.2572V15.2594H135.98V16.2572H138.638ZM146.587 18.4416L143.633 10.9984H142.022L139.041 18.4416H140.518L141.055 16.9853H144.492L145.029 18.4416H146.587ZM144.143 15.8527H141.485L142.827 12.3198L144.143 15.8527ZM148.574 18.5765C148.977 18.6304 149.379 18.4956 149.702 18.2259L149.433 17.309C149.299 17.4438 149.111 17.4977 148.896 17.4977C148.574 17.4977 148.359 17.2281 148.359 16.9044C148.359 16.8505 148.359 16.8505 148.359 16.8235V10.9175H147.177V17.1202C147.097 17.7944 147.58 18.4416 148.252 18.5225C148.332 18.6304 148.413 18.6304 148.574 18.5765ZM151.528 16.8235V14.693C151.85 14.2346 152.387 13.9649 152.924 13.9649C153.864 13.9649 154.454 14.693 154.454 15.7448C154.454 16.7966 153.864 17.5517 152.924 17.5517C152.387 17.5786 151.903 17.309 151.528 16.8235ZM151.528 18.4416V17.7135C151.93 18.2529 152.575 18.5765 153.246 18.5765C154.642 18.5765 155.636 17.5247 155.636 15.7718C155.636 14.0188 154.642 12.9671 153.246 12.9671C152.575 12.9671 151.93 13.2907 151.528 13.8301V11.0254H150.346V18.4686H151.528V18.4416ZM161.839 18.4416V13.048H160.657V13.7761C160.254 13.2368 159.61 12.9131 158.885 12.9131C157.489 12.9131 156.495 13.9919 156.495 15.7178C156.495 17.4438 157.489 18.5225 158.885 18.5225C159.556 18.5225 160.201 18.1989 160.604 17.6595V18.3877L161.839 18.4416ZM159.261 17.5517C158.321 17.5517 157.73 16.7696 157.73 15.7448C157.73 14.693 158.321 13.9649 159.261 13.9649C159.798 13.9649 160.335 14.2346 160.657 14.693V16.8235C160.308 17.255 159.798 17.5517 159.261 17.5517Z" fill="#8E979C"/>
<path d="M61.2506 8.51734C63.2377 8.51734 64.1506 7.43861 64.1506 6.19807C64.1506 3.42034 59.8274 4.28332 59.8274 2.88097C59.8274 2.34161 60.3108 1.96405 61.0895 1.96405C61.8951 1.96405 62.6738 2.28767 63.2645 2.82703L63.9895 1.88314C63.2108 1.155 62.2173 0.804414 61.1969 0.804414C59.5589 0.804414 58.4848 1.74831 58.4848 2.98885C58.4848 5.71264 62.808 4.76875 62.808 6.30594C62.808 6.79137 62.4052 7.3577 61.3312 7.3577C60.4182 7.3577 59.5589 7.00711 58.995 6.30594L58.27 7.30377C59.0487 8.11282 60.1228 8.57128 61.2506 8.51734ZM67.7488 8.51734C68.5544 8.57128 69.3331 8.19372 69.8164 7.57345L69.0377 6.84531C68.7692 7.24983 68.3127 7.51951 67.7757 7.49254C66.8358 7.49254 66.1377 6.7644 66.1377 5.68567C66.0571 4.76875 66.7284 4.01364 67.6146 3.90577C67.6683 3.90577 67.6951 3.90577 67.8025 3.90577C68.2859 3.90577 68.7423 4.12151 69.0646 4.553L69.8433 3.82486C69.36 3.17763 68.5812 2.82704 67.7757 2.88097C66.2988 2.82704 65.0099 4.01364 64.9831 5.52386C64.9831 5.5778 64.9831 5.65871 64.9831 5.71264C64.9025 7.1959 66.0571 8.49037 67.5609 8.57127C67.6146 8.51734 67.722 8.51734 67.7488 8.51734ZM73.1192 8.51734C74.5961 8.57128 75.885 7.38468 75.885 5.84748C75.885 5.79355 75.885 5.71264 75.885 5.6587C75.885 4.12151 74.623 2.88097 73.1192 2.88097C71.5887 2.88097 70.3535 4.14848 70.3535 5.6587C70.2998 7.14196 71.4276 8.43643 72.9313 8.4634C72.985 8.51734 73.0924 8.51734 73.1192 8.51734ZM73.1192 7.46558C72.1257 7.46558 71.5887 6.60259 71.5887 5.6587C71.5887 4.71481 72.1257 3.8788 73.1192 3.8788C74.1128 3.8788 74.6498 4.68785 74.6498 5.6587C74.6498 6.60259 74.1128 7.46558 73.1192 7.46558ZM78.6239 8.51734C79.0267 8.57128 79.4026 8.43643 79.698 8.16675L79.4295 7.24983C79.2952 7.38467 79.1073 7.43861 78.9462 7.43861C78.6239 7.43861 78.4091 7.16892 78.4091 6.84531C78.4091 6.79137 78.4091 6.79137 78.4091 6.7644V3.98667H79.4832V2.98885H78.4091V1.47862H77.2276V2.96188H76.3146V3.95971H77.2276V7.08802C77.1471 7.76222 77.5767 8.40947 78.2749 8.49037C78.4091 8.51734 78.5434 8.51734 78.6239 8.51734ZM82.4369 8.51734C82.8397 8.57128 83.2156 8.43643 83.511 8.16675L83.2425 7.24983C83.1082 7.38467 82.9203 7.43861 82.7592 7.43861C82.4369 7.43861 82.2221 7.16892 82.2221 6.84531C82.2221 6.79137 82.2221 6.79137 82.2221 6.7644V3.98667H83.2962V2.98885H82.2221V1.47862H81.0406V2.96188H80.1277V3.95971H81.0406V7.08802C80.9601 7.76222 81.3897 8.40947 82.0879 8.49037C82.1953 8.51734 82.3027 8.51734 82.4369 8.51734ZM84.9073 2.34161C85.3101 2.34161 85.6323 2.01799 85.6323 1.61346C85.6323 1.20894 85.3101 0.885316 84.9073 0.885316C84.5045 0.885316 84.1823 1.20894 84.1823 1.61346C84.1823 1.99102 84.5045 2.34161 84.9073 2.34161ZM85.4981 8.3825V2.98885H84.3166V8.3825H85.4981ZM88.8277 8.51734C90.2778 8.51734 91.0833 7.78919 91.0833 6.84531C91.0833 4.71481 87.8342 5.38902 87.8342 4.49907C87.8342 4.14848 88.1833 3.82486 88.8277 3.82486C89.4185 3.82486 90.0092 4.04061 90.412 4.4721L90.8954 3.66305C90.3046 3.17762 89.5796 2.88097 88.8277 2.88097C87.4851 2.88097 86.7064 3.66305 86.7064 4.52603C86.7064 6.60259 89.9555 5.84748 89.9555 6.87227C89.9555 7.2768 89.6065 7.60042 88.8814 7.60042C88.2101 7.60042 87.5657 7.33074 87.0823 6.87227L86.5453 7.73526C87.1629 8.24766 87.9685 8.57128 88.8277 8.51734ZM97.0445 8.3825V4.57997C97.0445 3.50124 96.4537 2.854 95.2722 2.854C94.5472 2.854 93.8759 3.17762 93.3657 3.71698V0.939256H92.1843V8.3825H93.3657V4.60694C93.688 4.14848 94.225 3.8788 94.7621 3.8788C95.4334 3.8788 95.8361 4.09454 95.8361 4.95753V8.35553H97.0445V8.3825ZM104.966 8.51734C107.302 8.51734 108.671 6.87228 108.671 4.33726H104.617V5.46992H107.275C107.087 6.54865 106.201 7.33074 105.1 7.2768C103.704 7.2768 102.522 6.14413 102.522 4.74178C102.522 4.68785 102.522 4.66088 102.522 4.60694C102.442 3.20459 103.516 1.96405 104.912 1.93708C104.966 1.93708 105.046 1.93708 105.1 1.93708C105.879 1.93708 106.577 2.3416 107.007 2.93491L108.081 2.34161C107.409 1.34378 106.282 0.750478 105.1 0.804414C102.925 0.804414 101.18 2.28767 101.18 4.66087C101.126 6.73743 102.71 8.4634 104.778 8.51734C104.805 8.51734 104.912 8.51734 104.966 8.51734ZM112.082 8.51734C113.559 8.57128 114.847 7.38468 114.847 5.84748C114.847 5.79355 114.847 5.71264 114.847 5.6587C114.847 4.12151 113.585 2.88097 112.082 2.88097C110.551 2.88097 109.316 4.14848 109.316 5.6587C109.262 7.14196 110.39 8.43643 111.894 8.4634C111.947 8.51734 112.028 8.51734 112.082 8.51734ZM112.082 7.46558C111.088 7.46558 110.551 6.60259 110.551 5.6587C110.551 4.71481 111.088 3.8788 112.082 3.8788C113.075 3.8788 113.612 4.68785 113.612 5.6587C113.612 6.60259 113.075 7.46558 112.082 7.46558ZM118.553 8.3825L120.755 2.98885H119.493L117.909 7.03409L116.324 2.98885H115.116L117.318 8.3825H118.553ZM123.816 8.51734C124.622 8.51734 125.4 8.24766 126.018 7.70829L125.481 6.92621C125.078 7.33074 124.487 7.51951 123.95 7.51951C123.091 7.57345 122.312 6.92621 122.232 6.03626H126.448V5.79354C126.448 4.12151 125.4 2.88097 123.789 2.88097C122.312 2.82704 121.023 4.06758 121.023 5.55083C121.023 5.60477 121.023 5.63174 121.023 5.68567C120.943 7.16893 122.098 8.46341 123.601 8.54431C123.655 8.51734 123.736 8.51734 123.816 8.51734ZM125.266 5.25418H122.232C122.285 4.44513 122.957 3.79789 123.709 3.85183C124.514 3.79789 125.186 4.44513 125.239 5.20024C125.212 5.20024 125.212 5.20024 125.266 5.25418ZM128.649 8.3825V4.71481C128.972 4.25635 129.509 3.98667 130.046 3.98667C130.18 3.98667 130.261 3.98667 130.395 4.04061V2.854C129.724 2.90794 129.052 3.20459 128.623 3.77092V2.98885H127.441V8.3825H128.649ZM136.114 8.3825V4.57997C136.114 3.50124 135.524 2.854 134.342 2.854C133.617 2.854 132.892 3.17762 132.436 3.71698V2.98885H131.281V8.3825H132.462V4.60694C132.785 4.14848 133.322 3.93273 133.859 3.8788C134.53 3.8788 134.933 4.14848 134.933 5.01147V8.35553L136.114 8.3825ZM145.351 8.3825V4.4721C145.351 3.39337 144.761 2.82703 143.821 2.82703C143.096 2.82703 142.425 3.17763 141.968 3.82486C141.78 3.17763 141.163 2.7731 140.491 2.82703C139.82 2.82703 139.175 3.15066 138.719 3.69002V2.96188H137.537V8.35553H138.719V4.57997C138.988 4.17545 139.498 3.90576 139.981 3.85183C140.626 3.85183 140.894 4.25635 140.894 4.79571V8.32856H142.076V4.553C142.344 4.14848 142.801 3.8788 143.338 3.82486C143.794 3.77093 144.197 4.14848 144.251 4.60694C144.251 4.68785 144.251 4.74178 144.251 4.82268V8.35553L145.351 8.3825ZM149.326 8.51734C150.131 8.51734 150.91 8.24766 151.527 7.70829L150.99 6.92621C150.588 7.33074 149.997 7.51951 149.46 7.51951C148.601 7.57345 147.822 6.92621 147.741 6.03626H151.903V5.79354C151.903 4.12151 150.856 2.88097 149.245 2.88097C147.768 2.88097 146.533 4.06758 146.479 5.55083C146.479 5.60477 146.479 5.63174 146.479 5.68567C146.426 7.16893 147.607 8.4634 149.111 8.49037C149.191 8.51734 149.272 8.51734 149.326 8.51734ZM150.776 5.25418H147.741C147.795 4.44513 148.466 3.79789 149.218 3.85183C150.024 3.79789 150.695 4.39119 150.749 5.20024C150.776 5.20024 150.776 5.20024 150.776 5.25418ZM157.865 8.3825V4.57997C157.865 3.50124 157.274 2.854 156.092 2.854C155.367 2.854 154.642 3.17762 154.186 3.71698V2.98885H153.031V8.3825H154.213V4.60694C154.535 4.14848 155.072 3.93273 155.609 3.8788C156.28 3.8788 156.683 4.14848 156.683 5.01147V8.35553L157.865 8.3825ZM160.926 8.51734C161.328 8.57128 161.704 8.43643 162 8.16675L161.731 7.24983C161.597 7.38467 161.409 7.43861 161.248 7.43861C160.926 7.43861 160.711 7.16892 160.711 6.84531C160.711 6.79137 160.711 6.79137 160.711 6.7644V3.98667H161.785V2.98885H160.711V1.47862H159.529V2.96188H158.616V3.95971H159.529V7.08802C159.449 7.76222 159.878 8.40947 160.577 8.49037C160.738 8.51734 160.845 8.51734 160.926 8.51734Z" fill="#2C3B45"/>
</svg>
