<svg width="243" height="43" viewBox="0 0 243 43" fill="none" xmlns="http://www.w3.org/2000/svg">
<path d="M146.076 32C151.283 32 155.354 28.4367 155.354 23C155.354 17.5633 151.283 14 146.076 14C140.868 14 136.797 17.5633 136.797 23C136.797 28.4735 140.868 32 146.076 32ZM12 31.5959H14.4204V18.6286L24.3221 31.5959H26.7425V14.5878H24.3221V27.5551L14.4204 14.5878H12V31.5959ZM33.1235 31.5959H45.1889V29.1347H35.5806V24.3225H43.6853V21.8612H35.5806V17.049H45.1889V14.5878H33.1235V31.5959ZM55.3839 31.5959H57.8043V17.049H63.9286V14.5878H49.2229V17.049H55.3472V31.5959H55.3839ZM80.7248 31.5959H83.3652L85.5289 26.7837H94.0003L96.164 31.5959H98.8045L91.0298 14.5878H88.4261L80.7248 31.5959ZM118.864 31.5959H121.285V24.3225H128.436C131.443 24.3225 133.46 22.449 133.46 19.4367C133.46 16.4612 131.443 14.551 128.436 14.551H118.864C118.864 14.551 118.864 31.5959 118.864 31.5959ZM160.085 31.5959H162.505V24.3225H165.879C168.299 24.3225 168.996 24.9102 170.793 27.5918L172.333 29.9429C172.737 30.5673 173.214 31.1918 173.544 31.5959H176.844V31.5592C176.001 30.8612 175.561 30.3102 174.387 28.5469L173.727 27.5918C171.783 24.7265 171.637 24.3592 170.5 23.6612C172.663 23.1102 173.874 21.5306 173.874 19.3265C173.874 16.3143 171.857 14.5878 168.849 14.5878H160.085V31.5959ZM184.032 31.5959H186.452V17.049H192.577V14.5878H177.871V17.049H183.995L184.032 31.5959ZM197.124 31.5959H209.19V29.1347H199.581V24.3225H207.686V21.8612H199.581V17.049H209.19V14.5878H197.124V31.5959ZM215.241 31.5959H217.661V24.3225H221.035C223.455 24.3225 224.152 24.9102 225.949 27.5918L227.489 29.9429C227.893 30.5673 228.369 31.1918 228.699 31.5959H232V31.5592C231.157 30.8612 230.716 30.3102 229.543 28.5469L228.883 27.5918C226.939 24.7265 226.792 24.3592 225.656 23.6612C227.819 23.1102 229.029 21.5306 229.029 19.3265C229.029 16.3143 227.012 14.5878 224.005 14.5878H215.241V31.5959ZM146.076 29.649C142.188 29.649 139.328 27.0041 139.328 23.0367C139.328 19.0694 142.188 16.4245 146.076 16.4245C150 16.4245 152.823 19.0694 152.823 23.0367C152.823 27.0041 150 29.649 146.076 29.649ZM121.285 21.8612V17.0122H128.289C129.866 17.0122 130.893 17.8204 130.893 19.4367C130.893 21.0531 129.866 21.8612 128.289 21.8612H121.285ZM162.505 21.8612V17.0122H168.739C170.316 17.0122 171.307 17.8204 171.307 19.4367C171.307 21.0531 170.316 21.8612 168.739 21.8612H162.505ZM217.698 21.8612V17.0122H223.932C225.509 17.0122 226.499 17.8204 226.499 19.4367C226.499 21.0531 225.509 21.8612 223.932 21.8612H217.698ZM86.6658 24.3225L89.783 17.5265L92.9001 24.3225H86.6658ZM67.0092 24.3225H77.2409V21.8612H67.0092V24.3225ZM102.325 24.3225H112.557V21.8612H102.325V24.3225Z" fill="black"/>
</svg>
